<?xml version="1.0" standalone="no"?>
<!DOCTYPE svg PUBLIC "-//W3C//DTD SVG 20010904//EN"
 "http://www.w3.org/TR/2001/REC-SVG-20010904/DTD/svg10.dtd">
<svg version="1.0" xmlns="http://www.w3.org/2000/svg"
 width="700.000000pt" height="700.000000pt" viewBox="0 0 700.000000 700.000000"
 preserveAspectRatio="xMidYMid meet">
<metadata>
Created by potrace 1.14, written by Peter Selinger 2001-2017
</metadata>
<g transform="translate(0.000000,700.000000) scale(0.100000,-0.100000)"
fill="#000000" stroke="none">
<path d="M2904 6981 c-80 -37 -126 -103 -130 -189 -3 -63 16 -115 58 -159 55
-57 89 -67 228 -69 69 -2 131 -3 138 -3 9 -1 12 -68 12 -301 0 -233 -3 -300
-12 -301 -7 0 -21 -2 -30 -4 -9 -2 -34 -6 -55 -9 -21 -3 -54 -8 -73 -11 -116
-19 -329 -82 -485 -145 -161 -64 -420 -212 -547 -314 -21 -16 -40 -27 -43 -25
-2 2 -99 98 -214 213 l-210 208 93 110 c55 65 98 125 105 148 31 104 -5 195
-104 258 -52 33 -140 35 -200 4 -24 -12 -160 -143 -341 -329 -524 -536 -485
-489 -490 -583 -7 -134 106 -242 236 -227 74 9 97 24 231 152 l56 54 215 -215
c167 -167 212 -217 202 -225 -8 -6 -52 -68 -98 -138 -87 -129 -200 -337 -232
-426 -9 -27 -21 -54 -24 -60 -10 -15 -66 -188 -89 -275 -28 -107 -53 -243 -60
-322 -1 -5 -136 -8 -301 -8 -165 0 -300 3 -301 8 0 4 -1 66 -3 137 -2 141 -12
179 -64 231 -45 44 -82 58 -152 58 -73 0 -113 -16 -160 -65 -62 -65 -61 -58
-58 -674 3 -522 4 -562 21 -594 70 -127 233 -158 337 -65 64 58 74 90 76 244
l2 135 301 2 c230 2 301 -1 302 -10 0 -7 2 -20 4 -29 2 -9 6 -34 9 -55 3 -21
10 -63 16 -93 6 -30 14 -66 16 -80 8 -38 61 -218 83 -280 77 -216 211 -465
344 -638 l40 -53 -34 -35 c-19 -20 -115 -116 -213 -214 l-179 -179 -101 86
c-122 104 -169 128 -241 120 -75 -8 -134 -46 -177 -115 -28 -46 -29 -143 0
-197 26 -50 784 -806 832 -831 20 -10 58 -17 90 -17 78 0 136 30 180 95 32 46
35 57 34 122 0 83 -8 97 -126 234 l-77 89 193 194 c107 107 203 202 214 213
21 18 22 17 104 -42 144 -105 371 -232 498 -281 219 -83 345 -119 534 -152 59
-10 112 -19 117 -19 5 0 9 -134 9 -300 0 -233 -3 -300 -12 -301 -7 0 -69 -2
-138 -3 -136 -2 -174 -13 -226 -64 -43 -44 -58 -82 -58 -152 0 -70 15 -110 59
-155 63 -62 36 -60 656 -62 l565 -3 51 25 c84 42 132 132 118 224 -9 57 -24
87 -67 128 -49 47 -80 55 -223 59 -71 1 -133 3 -137 3 -5 1 -8 136 -8 301 0
259 2 300 15 301 8 1 18 2 23 3 4 1 30 5 57 10 380 57 754 213 1078 448 48 35
72 46 80 39 23 -18 410 -408 411 -413 0 -3 -20 -30 -45 -59 -135 -156 -158
-195 -159 -259 0 -87 55 -175 129 -207 54 -23 138 -21 186 4 23 13 207 189
436 420 376 377 397 400 407 445 19 92 -2 162 -67 221 -69 63 -156 73 -239 30
-29 -16 -92 -63 -141 -105 l-88 -77 -206 207 c-114 114 -210 210 -213 214 -4
4 11 31 34 60 153 201 293 475 377 739 35 113 89 361 94 436 1 18 601 18 602
0 0 -6 2 -70 3 -142 3 -143 11 -168 68 -221 49 -45 97 -63 159 -60 86 4 153
51 190 131 17 37 19 78 19 585 0 326 -4 559 -10 579 -27 96 -125 167 -217 159
-88 -9 -147 -46 -185 -119 -20 -38 -23 -61 -25 -169 -1 -69 -2 -131 -2 -137
-1 -10 -68 -13 -300 -13 l-299 0 -6 27 c-3 16 -8 51 -11 78 -9 71 -41 216 -71
314 -80 264 -200 509 -359 730 l-67 93 48 50 c103 105 371 371 376 372 3 0 29
-19 58 -44 29 -25 69 -58 89 -75 20 -16 38 -33 41 -37 14 -18 99 -48 138 -48
55 0 100 19 150 64 67 60 86 168 46 249 -21 43 -780 803 -824 827 -179 92
-383 -94 -301 -275 10 -23 57 -86 104 -142 l86 -100 -210 -209 c-115 -115
-211 -211 -214 -213 -2 -2 -28 14 -57 36 -213 163 -492 302 -769 386 -117 35
-334 81 -406 86 -10 1 -13 68 -13 301 0 233 3 300 13 301 6 0 68 2 137 3 145
3 177 13 232 74 96 106 65 268 -65 339 -29 17 -80 18 -597 20 -534 3 -567 2
-606 -16z m-89 -1891 c133 -30 273 -138 333 -257 104 -203 67 -440 -92 -598
-346 -345 -929 -51 -860 433 16 114 59 199 145 285 126 126 300 177 474 137z
m1686 -2349 c182 -82 219 -340 68 -475 -188 -169 -483 -38 -482 214 0 128 83
242 204 279 50 15 157 6 210 -18z"/>
</g>
</svg>
